<?xml version="1.0" standalone="no"?>
<!DOCTYPE svg PUBLIC "-//W3C//DTD SVG 20010904//EN"
 "http://www.w3.org/TR/2001/REC-SVG-20010904/DTD/svg10.dtd">
<svg version="1.0" xmlns="http://www.w3.org/2000/svg"
 width="192.000000pt" height="192.000000pt" viewBox="0 0 192.000000 192.000000"
 preserveAspectRatio="xMidYMid meet">
<metadata>
Created by potrace 1.14, written by Peter Selinger 2001-2017
</metadata>
<g transform="translate(0.000000,192.000000) scale(0.100000,-0.100000)"
fill="#000000" stroke="none">
<path d="M54 1909 c-11 -6 -28 -23 -37 -39 -16 -26 -17 -104 -17 -915 l0 -887
34 -34 34 -34 886 0 c615 0 892 3 909 11 13 6 31 23 40 39 16 26 17 105 17
915 l0 887 -34 34 -34 34 -888 -1 c-576 0 -896 -4 -910 -10z m1022 -282 c124
-63 188 -188 182 -355 l-3 -92 163 0 c128 0 164 -3 168 -14 3 -7 -2 -67 -10
-132 -9 -65 -16 -122 -16 -126 0 -4 -4 -8 -9 -8 -4 0 -11 25 -14 55 -7 67 -38
133 -74 160 -18 13 -49 21 -90 23 -78 5 -109 -2 -127 -31 -12 -19 -66 -286
-66 -328 0 -11 15 -13 72 -11 190 10 308 -72 308 -212 0 -150 -107 -275 -266
-312 -58 -13 -464 -7 -464 7 0 5 13 9 29 9 17 0 42 10 56 23 24 20 30 42 64
232 21 116 41 227 44 247 l6 37 -41 -25 c-82 -52 -166 -77 -264 -78 -83 -1
-96 2 -157 32 -191 94 -243 370 -117 627 65 135 175 232 320 283 92 32 231 27
306 -11z"/>
<path d="M787 1616 c-110 -40 -199 -175 -226 -346 -43 -261 27 -485 165 -530
138 -46 298 85 341 280 24 110 13 140 -52 140 -15 0 -24 4 -20 10 3 6 29 10
57 10 l51 0 -6 98 c-8 128 -37 218 -91 279 -62 71 -132 90 -219 59z"/>
<path d="M1191 722 c-23 -7 -27 -18 -57 -187 -38 -206 -39 -228 -19 -245 22
-18 89 -24 130 -10 94 31 145 115 152 250 5 98 -11 142 -62 171 -35 20 -110
31 -144 21z"/>
</g>
</svg>
