<svg width="40" height="40" viewBox="0 0 40 40" fill="none" xmlns="http://www.w3.org/2000/svg">
<path d="M29.2791 15.7046C29.6687 15.3151 29.6698 14.6838 29.2816 14.2929L28.3409 13.3454C27.9507 12.9526 27.3156 12.9514 26.9241 13.3429L17.3562 22.9109C16.9662 23.3009 16.3341 23.3015 15.9433 22.9123L13.055 20.0352C12.6653 19.647 12.0351 19.6465 11.6447 20.0341L10.6968 20.9753C10.3035 21.3658 10.3028 22.0016 10.6951 22.3929L15.9433 27.628C16.334 28.0177 16.9665 28.0173 17.3566 27.6271L29.2791 15.7046Z" fill="url(#paint0_linear_362_724)"/>
<path d="M20 39C9.50659 39 1 30.4934 1 20H-1C-1 31.598 8.40202 41 20 41V39ZM39 20C39 30.4934 30.4934 39 20 39V41C31.598 41 41 31.598 41 20H39ZM20 1C30.4934 1 39 9.50659 39 20H41C41 8.40202 31.598 -1 20 -1V1ZM20 -1C8.40202 -1 -1 8.40202 -1 20H1C1 9.50659 9.50659 1 20 1V-1Z" fill="url(#paint1_linear_362_724)"/>
<defs>
<linearGradient id="paint0_linear_362_724" x1="10.4014" y1="13.05" x2="30.0793" y2="13.7548" gradientUnits="userSpaceOnUse">
<stop stop-color="#17FADE"/>
<stop offset="1" stop-color="#02C2FF"/>
</linearGradient>
<linearGradient id="paint1_linear_362_724" x1="0" y1="0" x2="41.0794" y2="1.1411" gradientUnits="userSpaceOnUse">
<stop stop-color="#17FADE"/>
<stop offset="1" stop-color="#02C2FF"/>
</linearGradient>
</defs>
</svg>
