<svg width="32" height="32" viewBox="0 0 32 32" fill="none" xmlns="http://www.w3.org/2000/svg">
<path d="M16.0003 2.6665C8.63633 2.6665 2.66699 8.63584 2.66699 15.9998C2.66699 23.3638 8.63633 29.3332 16.0003 29.3332C23.3643 29.3332 29.3337 23.3638 29.3337 15.9998C29.3337 8.63584 23.3643 2.6665 16.0003 2.6665Z" fill="url(#paint0_linear_362_851)"/>
<path d="M17.805 19.5343H21.2557L21.7977 16.0289H17.805V14.1129C17.805 12.6569 18.281 11.3656 19.643 11.3656H21.8317V8.30693C21.447 8.25493 20.6337 8.1416 19.097 8.1416C15.8877 8.1416 14.0064 9.83627 14.0064 13.6976V16.0296H10.707V19.5349H14.0057V29.1696C14.659 29.2669 15.321 29.3336 16.0004 29.3336C16.6144 29.3336 17.2137 29.2776 17.805 29.1976V19.5343Z" fill="white"/>
<defs>
<linearGradient id="paint0_linear_362_851" x1="6.66233" y1="6.66184" x2="27.077" y2="27.0765" gradientUnits="userSpaceOnUse">
<stop stop-color="#2AA4F4"/>
<stop offset="1" stop-color="#007AD9"/>
</linearGradient>
</defs>
</svg>
