<svg width="32" height="32" viewBox="0 0 32 32" fill="none" xmlns="http://www.w3.org/2000/svg">
<path d="M22.6778 27.9932L9.3445 28.0058C6.41117 28.0085 4.00917 25.6112 4.00583 22.6778L3.99317 9.3445C3.9905 6.41117 6.38783 4.00917 9.32117 4.00583L22.6545 3.99317C25.5878 3.9905 27.9898 6.38783 27.9932 9.32117L28.0058 22.6545C28.0092 25.5885 25.6112 27.9905 22.6778 27.9932Z" fill="url(#paint0_radial_362_845)"/>
<path d="M22.6778 27.9932L9.3445 28.0058C6.41117 28.0085 4.00917 25.6112 4.00583 22.6778L3.99317 9.3445C3.9905 6.41117 6.38783 4.00917 9.32117 4.00583L22.6545 3.99317C25.5878 3.9905 27.9898 6.38783 27.9932 9.32117L28.0058 22.6545C28.0092 25.5885 25.6112 27.9905 22.6778 27.9932Z" fill="url(#paint1_radial_362_845)"/>
<path d="M15.9997 20.6668C13.427 20.6668 11.333 18.5735 11.333 16.0002C11.333 13.4268 13.427 11.3335 15.9997 11.3335C18.5723 11.3335 20.6663 13.4268 20.6663 16.0002C20.6663 18.5735 18.5723 20.6668 15.9997 20.6668ZM15.9997 12.6668C14.1617 12.6668 12.6663 14.1622 12.6663 16.0002C12.6663 17.8382 14.1617 19.3335 15.9997 19.3335C17.8377 19.3335 19.333 17.8382 19.333 16.0002C19.333 14.1622 17.8377 12.6668 15.9997 12.6668Z" fill="white"/>
<path d="M21 12C21.5523 12 22 11.5523 22 11C22 10.4477 21.5523 10 21 10C20.4477 10 20 10.4477 20 11C20 11.5523 20.4477 12 21 12Z" fill="white"/>
<path d="M19.9997 24.6668H11.9997C9.42701 24.6668 7.33301 22.5735 7.33301 20.0002V12.0002C7.33301 9.42683 9.42701 7.3335 11.9997 7.3335H19.9997C22.5723 7.3335 24.6663 9.42683 24.6663 12.0002V20.0002C24.6663 22.5735 22.5723 24.6668 19.9997 24.6668ZM11.9997 8.66683C10.1617 8.66683 8.66634 10.1622 8.66634 12.0002V20.0002C8.66634 21.8382 10.1617 23.3335 11.9997 23.3335H19.9997C21.8377 23.3335 23.333 21.8382 23.333 20.0002V12.0002C23.333 10.1622 21.8377 8.66683 19.9997 8.66683H11.9997Z" fill="white"/>
<defs>
<radialGradient id="paint0_radial_362_845" cx="0" cy="0" r="1" gradientUnits="userSpaceOnUse" gradientTransform="translate(12.9198 28.0232) scale(29.9327)">
<stop stop-color="#FFDD55"/>
<stop offset="0.328" stop-color="#FF543F"/>
<stop offset="0.348" stop-color="#FC5245"/>
<stop offset="0.504" stop-color="#E64771"/>
<stop offset="0.643" stop-color="#D53E91"/>
<stop offset="0.761" stop-color="#CC39A4"/>
<stop offset="0.841" stop-color="#C837AB"/>
</radialGradient>
<radialGradient id="paint1_radial_362_845" cx="0" cy="0" r="1" gradientUnits="userSpaceOnUse" gradientTransform="translate(7.85717 3.69337) scale(19.8753 13.2429)">
<stop stop-color="#4168C9"/>
<stop offset="0.999" stop-color="#4168C9" stop-opacity="0"/>
</radialGradient>
</defs>
</svg>
