<svg width="23" height="50" viewBox="0 0 23 50" fill="none" xmlns="http://www.w3.org/2000/svg">
<path d="M9.024 30.384C7.53067 30.384 6.24 30.0427 5.152 29.36C4.064 28.656 3.232 27.696 2.656 26.48C2.08 25.2427 1.792 23.856 1.792 22.32C1.792 21.5093 1.86667 20.7307 2.016 19.984C2.35733 18.0213 3.06133 16.2507 4.128 14.672C5.216 13.0933 6.53867 11.8667 8.096 10.992C9.67467 10.096 11.3493 9.648 13.12 9.648C14.656 9.648 15.9787 9.98933 17.088 10.672C18.1973 11.3547 19.04 12.304 19.616 13.52C20.2133 14.7147 20.512 16.08 20.512 17.616C20.512 18.448 20.4373 19.2373 20.288 19.984C19.9253 22.0533 19.1787 23.8773 18.048 25.456C16.9173 27.0133 15.552 28.2293 13.952 29.104C12.352 29.9573 10.7093 30.384 9.024 30.384ZM10.4 29.552C12.0213 29.552 13.44 28.8587 14.656 27.472C15.872 26.064 16.704 24.1333 17.152 21.68C17.344 20.6133 17.44 19.5787 17.44 18.576C17.44 17.0187 17.216 15.6213 16.768 14.384C16.3413 13.1467 15.7013 12.176 14.848 11.472C14.016 10.768 13.024 10.416 11.872 10.416C10.2293 10.416 8.8 11.1307 7.584 12.56C6.368 13.968 5.54667 15.8773 5.12 18.288C4.928 19.312 4.832 20.3253 4.832 21.328C4.832 22.864 5.04533 24.2613 5.472 25.52C5.92 26.7573 6.56 27.7387 7.392 28.464C8.224 29.1893 9.22667 29.552 10.4 29.552Z" fill="#F3F4F4"/>
<path d="M21.456 20C21.6267 20 21.744 20.0213 21.808 20.064C21.872 20.1067 21.904 20.2027 21.904 20.352C21.904 20.5013 21.8933 20.64 21.872 20.768L21.328 25.376C21.3067 25.44 21.2427 25.472 21.136 25.472C21.0293 25.4507 20.976 25.3973 20.976 25.312C20.976 23.8613 20.688 22.7307 20.112 21.92C19.5573 21.1093 18.7573 20.704 17.712 20.704H16.336C15.6107 20.704 15.088 20.864 14.768 21.184C14.4693 21.4827 14.2453 22.0373 14.096 22.848L13.04 28.864C13.7013 28.7573 14.4693 28.704 15.344 28.704C17.1147 28.704 18.544 29.0773 19.632 29.824C20.7413 30.5493 21.296 31.648 21.296 33.12C21.296 33.4613 21.264 33.8453 21.2 34.272C21.008 35.3813 20.5707 36.384 19.888 37.28C19.2053 38.176 18.3413 38.88 17.296 39.392C16.272 39.8827 15.1627 40.128 13.968 40.128C13.4133 40.128 12.784 40.096 12.08 40.032C11.8027 40.0107 11.4613 39.9893 11.056 39.968C10.6507 39.9467 10.224 39.936 9.776 39.936L7.6 39.968C7.23733 39.9893 6.736 40 6.096 40C6.05333 40 6.032 39.936 6.032 39.808C6.032 39.68 6.05333 39.616 6.096 39.616C6.75733 39.616 7.25867 39.552 7.6 39.424C7.94133 39.296 8.19733 39.0827 8.368 38.784C8.56 38.464 8.70933 37.984 8.816 37.344L11.44 22.528C11.504 22.1013 11.536 21.76 11.536 21.504C11.536 21.0347 11.3973 20.736 11.12 20.608C10.864 20.4587 10.3733 20.384 9.648 20.384C9.584 20.384 9.552 20.32 9.552 20.192C9.552 20.064 9.584 20 9.648 20H21.456ZM14.448 29.504C14 29.504 13.4773 29.5573 12.88 29.664L11.504 37.504C11.4613 37.8027 11.44 38.016 11.44 38.144C11.44 38.5707 11.5787 38.8907 11.856 39.104C12.1547 39.296 12.6773 39.392 13.424 39.392C16.0907 39.392 17.6907 37.8453 18.224 34.752C18.3307 34.112 18.384 33.5893 18.384 33.184C18.384 30.7307 17.072 29.504 14.448 29.504Z" fill="url(#paint0_linear_362_1157)"/>
<defs>
<linearGradient id="paint0_linear_362_1157" x1="6" y1="10" x2="23.4698" y2="10.2062" gradientUnits="userSpaceOnUse">
<stop stop-color="#17FADE"/>
<stop offset="1" stop-color="#02C2FF"/>
</linearGradient>
</defs>
</svg>
