<svg width="30" height="20" viewBox="0 0 30 20" fill="none" xmlns="http://www.w3.org/2000/svg">
<path fill-rule="evenodd" clip-rule="evenodd" d="M0 1C0 0.447715 0.447716 0 1 0H29C29.5523 0 30 0.447715 30 1V2.33334C30 2.88562 29.5523 3.33333 29 3.33333H1C0.447715 3.33333 0 2.88562 0 2.33334V1ZM0 10.6667C0 11.2189 0.447715 11.6667 1 11.6667H29C29.5523 11.6667 30 11.2189 30 10.6667V9.33332C30 8.78103 29.5523 8.33332 29 8.33332H1C0.447716 8.33332 0 8.78103 0 9.33332V10.6667ZM0 19C0 19.5523 0.447715 20 1 20H29C29.5523 20 30 19.5523 30 19V17.6667C30 17.1144 29.5523 16.6667 29 16.6667H1C0.447716 16.6667 0 17.1144 0 17.6667V19Z" fill="#F3F4F4"/>
</svg>
