<svg width="57" height="45" viewBox="0 0 57 45" fill="none" xmlns="http://www.w3.org/2000/svg">
<path d="M12.8469 22C15.7802 22.2667 18.1802 23.4 20.0469 25.4C21.9135 27.4 22.8469 29.9333 22.8469 33C22.8469 36.3333 21.8469 39.0667 19.8469 41.2C17.8469 43.2 15.3135 44.2 12.2469 44.2C8.78021 44.2 5.98021 42.9333 3.84688 40.4C1.84688 37.8667 0.846876 33.9333 0.846876 28.6C0.846876 18.3333 4.24688 9.46666 11.0469 1.99999C12.3802 0.666658 13.9135 -7.62939e-06 15.6469 -7.62939e-06C17.1135 -7.62939e-06 18.3802 0.533327 19.4469 1.6C20.5135 2.53332 21.0469 3.66666 21.0469 4.99999C21.0469 6.46666 20.5135 7.73333 19.4469 8.8C15.9802 12.4 13.7802 16.8 12.8469 22ZM46.0469 22C48.9802 22.2667 51.3802 23.4 53.2469 25.4C55.1135 27.4 56.0469 29.9333 56.0469 33C56.0469 36.3333 55.0469 39.0667 53.0469 41.2C51.0469 43.2 48.5135 44.2 45.4469 44.2C41.9802 44.2 39.1802 42.9333 37.0469 40.4C35.0469 37.8667 34.0469 33.9333 34.0469 28.6C34.0469 18.3333 37.4469 9.46666 44.2469 1.99999C45.5802 0.666658 47.1135 -7.62939e-06 48.8469 -7.62939e-06C50.3135 -7.62939e-06 51.5802 0.533327 52.6469 1.6C53.7135 2.53332 54.2469 3.66666 54.2469 4.99999C54.2469 6.46666 53.7135 7.73333 52.6469 8.8C49.1802 12.4 46.9802 16.8 46.0469 22Z" fill="#969696"/>
</svg>
